<?xml version="1.0" standalone="no"?><svg xmlns="http://www.w3.org/2000/svg" viewBox="0 0 1440 320"><path fill="#f7f7f7" fill-opacity="1" d="M0,128L34.3,138.7C68.6,149,137,171,206,186.7C274.3,203,343,213,411,181.3C480,149,549,75,617,74.7C685.7,75,754,149,823,160C891.4,171,960,117,1029,128C1097.1,139,1166,213,1234,213.3C1302.9,213,1371,139,1406,101.3L1440,64L1440,320L1405.7,320C1371.4,320,1303,320,1234,320C1165.7,320,1097,320,1029,320C960,320,891,320,823,320C754.3,320,686,320,617,320C548.6,320,480,320,411,320C342.9,320,274,320,206,320C137.1,320,69,320,34,320L0,320Z"></path></svg>