<?xml version="1.0" standalone="no"?><svg xmlns="http://www.w3.org/2000/svg" viewBox="0 0 1440 320"><path fill="#f3f4f5" fill-opacity="1" d="M0,160L14.1,176C28.2,192,56,224,85,234.7C112.9,245,141,235,169,218.7C197.6,203,226,181,254,170.7C282.4,160,311,160,339,186.7C367.1,213,395,267,424,282.7C451.8,299,480,277,508,229.3C536.5,181,565,107,593,112C621.2,117,649,203,678,208C705.9,213,734,139,762,138.7C790.6,139,819,213,847,240C875.3,267,904,245,932,234.7C960,224,988,224,1016,192C1044.7,160,1073,96,1101,106.7C1129.4,117,1158,203,1186,240C1214.1,277,1242,267,1271,240C1298.8,213,1327,171,1355,165.3C1383.5,160,1412,192,1426,208L1440,224L1440,320L1425.9,320C1411.8,320,1384,320,1355,320C1327.1,320,1299,320,1271,320C1242.4,320,1214,320,1186,320C1157.6,320,1129,320,1101,320C1072.9,320,1045,320,1016,320C988.2,320,960,320,932,320C903.5,320,875,320,847,320C818.8,320,791,320,762,320C734.1,320,706,320,678,320C649.4,320,621,320,593,320C564.7,320,536,320,508,320C480,320,452,320,424,320C395.3,320,367,320,339,320C310.6,320,282,320,254,320C225.9,320,198,320,169,320C141.2,320,113,320,85,320C56.5,320,28,320,14,320L0,320Z"></path></svg>