<?xml version="1.0" standalone="no"?><svg xmlns="http://www.w3.org/2000/svg" viewBox="0 0 1440 320"><path fill="#f7f7f7" fill-opacity="1" d="M0,224L24,202.7C48,181,96,139,144,122.7C192,107,240,117,288,138.7C336,160,384,192,432,213.3C480,235,528,245,576,250.7C624,256,672,256,720,224C768,192,816,128,864,117.3C912,107,960,149,1008,149.3C1056,149,1104,107,1152,74.7C1200,43,1248,21,1296,42.7C1344,64,1392,128,1416,160L1440,192L1440,320L1416,320C1392,320,1344,320,1296,320C1248,320,1200,320,1152,320C1104,320,1056,320,1008,320C960,320,912,320,864,320C816,320,768,320,720,320C672,320,624,320,576,320C528,320,480,320,432,320C384,320,336,320,288,320C240,320,192,320,144,320C96,320,48,320,24,320L0,320Z"></path></svg>