<?xml version="1.0" standalone="no"?>
<svg xmlns:xlink="http://www.w3.org/1999/xlink" id="wave" style="transform:rotate(0deg); transition: 0.3s" viewBox="0 0 1440 490" version="1.1" xmlns="http://www.w3.org/2000/svg"><defs><linearGradient id="sw-gradient-0" x1="0" x2="0" y1="1" y2="0"><stop stop-color="rgba(255, 255, 255, 0.68)" offset="0%"/><stop stop-color="rgba(255, 255, 255, 1)" offset="100%"/></linearGradient></defs><path style="transform:translate(0, 0px); opacity:1" fill="url(#sw-gradient-0)" d="M0,441L30,432.8C60,425,120,408,180,367.5C240,327,300,261,360,236.8C420,212,480,229,540,269.5C600,310,660,376,720,367.5C780,359,840,278,900,228.7C960,180,1020,163,1080,204.2C1140,245,1200,343,1260,367.5C1320,392,1380,343,1440,343C1500,343,1560,392,1620,400.2C1680,408,1740,376,1800,367.5C1860,359,1920,376,1980,367.5C2040,359,2100,327,2160,318.5C2220,310,2280,327,2340,351.2C2400,376,2460,408,2520,351.2C2580,294,2640,147,2700,98C2760,49,2820,98,2880,98C2940,98,3000,49,3060,57.2C3120,65,3180,131,3240,196C3300,261,3360,327,3420,343C3480,359,3540,327,3600,294C3660,261,3720,229,3780,196C3840,163,3900,131,3960,122.5C4020,114,4080,131,4140,163.3C4200,196,4260,245,4290,269.5L4320,294L4320,490L4290,490C4260,490,4200,490,4140,490C4080,490,4020,490,3960,490C3900,490,3840,490,3780,490C3720,490,3660,490,3600,490C3540,490,3480,490,3420,490C3360,490,3300,490,3240,490C3180,490,3120,490,3060,490C3000,490,2940,490,2880,490C2820,490,2760,490,2700,490C2640,490,2580,490,2520,490C2460,490,2400,490,2340,490C2280,490,2220,490,2160,490C2100,490,2040,490,1980,490C1920,490,1860,490,1800,490C1740,490,1680,490,1620,490C1560,490,1500,490,1440,490C1380,490,1320,490,1260,490C1200,490,1140,490,1080,490C1020,490,960,490,900,490C840,490,780,490,720,490C660,490,600,490,540,490C480,490,420,490,360,490C300,490,240,490,180,490C120,490,60,490,30,490L0,490Z"/><defs><linearGradient id="sw-gradient-1" x1="0" x2="0" y1="1" y2="0"><stop stop-color="rgba(255, 255, 255, 0.35)" offset="0%"/><stop stop-color="rgba(255, 255, 255, 1)" offset="100%"/></linearGradient></defs><path style="transform:translate(0, 50px); opacity:0.9" fill="url(#sw-gradient-1)" d="M0,294L30,285.8C60,278,120,261,180,228.7C240,196,300,147,360,155.2C420,163,480,229,540,269.5C600,310,660,327,720,334.8C780,343,840,343,900,351.2C960,359,1020,376,1080,351.2C1140,327,1200,261,1260,220.5C1320,180,1380,163,1440,187.8C1500,212,1560,278,1620,269.5C1680,261,1740,180,1800,138.8C1860,98,1920,98,1980,98C2040,98,2100,98,2160,81.7C2220,65,2280,33,2340,24.5C2400,16,2460,33,2520,81.7C2580,131,2640,212,2700,277.7C2760,343,2820,392,2880,400.2C2940,408,3000,376,3060,367.5C3120,359,3180,376,3240,351.2C3300,327,3360,261,3420,196C3480,131,3540,65,3600,32.7C3660,0,3720,0,3780,8.2C3840,16,3900,33,3960,89.8C4020,147,4080,245,4140,277.7C4200,310,4260,278,4290,261.3L4320,245L4320,490L4290,490C4260,490,4200,490,4140,490C4080,490,4020,490,3960,490C3900,490,3840,490,3780,490C3720,490,3660,490,3600,490C3540,490,3480,490,3420,490C3360,490,3300,490,3240,490C3180,490,3120,490,3060,490C3000,490,2940,490,2880,490C2820,490,2760,490,2700,490C2640,490,2580,490,2520,490C2460,490,2400,490,2340,490C2280,490,2220,490,2160,490C2100,490,2040,490,1980,490C1920,490,1860,490,1800,490C1740,490,1680,490,1620,490C1560,490,1500,490,1440,490C1380,490,1320,490,1260,490C1200,490,1140,490,1080,490C1020,490,960,490,900,490C840,490,780,490,720,490C660,490,600,490,540,490C480,490,420,490,360,490C300,490,240,490,180,490C120,490,60,490,30,490L0,490Z"/></svg>