<?xml version="1.0" standalone="no"?><svg xmlns="http://www.w3.org/2000/svg" viewBox="0 0 1440 320"><path fill="#f3f4f5" fill-opacity="1" d="M0,224L17.1,186.7C34.3,149,69,75,103,85.3C137.1,96,171,192,206,229.3C240,267,274,245,309,240C342.9,235,377,245,411,218.7C445.7,192,480,128,514,96C548.6,64,583,64,617,96C651.4,128,686,192,720,229.3C754.3,267,789,277,823,256C857.1,235,891,181,926,144C960,107,994,85,1029,85.3C1062.9,85,1097,107,1131,122.7C1165.7,139,1200,149,1234,181.3C1268.6,213,1303,267,1337,277.3C1371.4,288,1406,256,1423,240L1440,224L1440,320L1422.9,320C1405.7,320,1371,320,1337,320C1302.9,320,1269,320,1234,320C1200,320,1166,320,1131,320C1097.1,320,1063,320,1029,320C994.3,320,960,320,926,320C891.4,320,857,320,823,320C788.6,320,754,320,720,320C685.7,320,651,320,617,320C582.9,320,549,320,514,320C480,320,446,320,411,320C377.1,320,343,320,309,320C274.3,320,240,320,206,320C171.4,320,137,320,103,320C68.6,320,34,320,17,320L0,320Z"></path></svg>