<?xml version="1.0" standalone="no"?><svg xmlns="http://www.w3.org/2000/svg" viewBox="0 0 1440 320"><path fill="#f3f4f5" fill-opacity="1" d="M0,0L17.1,21.3C34.3,43,69,85,103,133.3C137.1,181,171,235,206,245.3C240,256,274,224,309,224C342.9,224,377,256,411,266.7C445.7,277,480,267,514,234.7C548.6,203,583,149,617,122.7C651.4,96,686,96,720,117.3C754.3,139,789,181,823,186.7C857.1,192,891,160,926,133.3C960,107,994,85,1029,96C1062.9,107,1097,149,1131,154.7C1165.7,160,1200,128,1234,122.7C1268.6,117,1303,139,1337,128C1371.4,117,1406,75,1423,53.3L1440,32L1440,320L1422.9,320C1405.7,320,1371,320,1337,320C1302.9,320,1269,320,1234,320C1200,320,1166,320,1131,320C1097.1,320,1063,320,1029,320C994.3,320,960,320,926,320C891.4,320,857,320,823,320C788.6,320,754,320,720,320C685.7,320,651,320,617,320C582.9,320,549,320,514,320C480,320,446,320,411,320C377.1,320,343,320,309,320C274.3,320,240,320,206,320C171.4,320,137,320,103,320C68.6,320,34,320,17,320L0,320Z"></path></svg>